<svg height="512" viewBox="0 0 64 64" width="512" xmlns="http://www.w3.org/2000/svg"><g id="Line"><path d="m62.71 53.29a1 1 0 0 1 -.71 1.71h-2v7a1 1 0 0 1 -1 1h-4v-4a1 1 0 0 0 -1-1h-2a1 1 0 0 0 -1 1v4h-4a1 1 0 0 1 -1-1v-1.5h-14a3.5 3.5 0 0 1 -3.5-3.5v-22.5h-4.67a7 7 0 1 1 0-3h17.17v-2.5h-2a1 1 0 0 1 -.71-1.71l9-9a1 1 0 0 1 1.42 0l9 9a1 1 0 0 1 -.71 1.71h-2v7a1 1 0 0 1 -1 1h-4v-4a1 1 0 0 0 -1-1h-2a1 1 0 0 0 -1 1v4h-4a1 1 0 0 1 -1-1v-1.5h-9.5v22.5a.5.5 0 0 0 .5.5h14v-2.5h-2a1 1 0 0 1 -.71-1.71l9-9a1 1 0 0 1 1.42 0z" fill="#c4a2fc"/><path d="m41.56 7h-15.38l-2.18-4.34a3 3 0 0 0 -2.68-1.66h-11.76a3 3 0 0 0 -3 3v9h-2.56a3 3 0 0 0 -2.94 3.59l5.52 27.61a1.19 1.19 0 0 0 .35.56 1.19 1.19 0 0 0 .63.24h36a1 1 0 0 0 1-1v-34a3 3 0 0 0 -3-3zm-33-3a1 1 0 0 1 1-1h11.76a1 1 0 0 1 .9.55l2.45 4.9a1 1 0 0 0 .89.55h16a1 1 0 0 1 1 1v23.92l-3.7-18.51a3 3 0 0 0 -3-2.41h-27.3zm-4.56 11h31.91a1 1 0 0 1 1 .8l5.43 27.2h-34l-5.34-26.8a1 1 0 0 1 1-1.2zm16.56-7a1 1 0 0 1 -1 1h-6a1 1 0 0 1 0-2h6a1 1 0 0 1 1 1z" fill="#151a6a"/></g></svg>