<svg id="Layer_1" enable-background="new 0 0 509.998 509.998" height="512" viewBox="0 0 509.998 509.998" width="512" xmlns="http://www.w3.org/2000/svg"><g><path d="m239.999 21.488-154.553 69.958 66.638 74.553 104.681-46.598z" fill="#fdbf00"/><path d="m256.765 31.191 9.191 92.425 89.362 42.383 71.407-75.574-95.917-44.937z" fill="#ff8856"/><path d="m431.403 101.148-64.34 73.532 30.128 104.296 102.127-5.743z" fill="#ff435b"/><path d="m71.659 108.808-36.511 82.978-20.936 87.19h97.276l45.192-123.517z" fill="#bee75e"/><g><path d="m134.999 498.333c-3.978 0-7.793-1.58-10.606-4.394-2.813-2.813-4.394-6.628-4.394-10.606v-94.741c0-34.974 28.262-63.427 62.999-63.427h144c34.738 0 63 28.453 63 63.427v94.735c0 8.284-6.716 15-15 15z" fill="#fff4f4"/></g><path d="m326.998 325.165h-72v173.165l120-.003c8.284 0 15-6.716 15-15v-94.735c0-34.974-28.262-63.427-63-63.427z" fill="#f6efea"/><g><path d="m254.998 480.104c-4.648 0-9.035-2.155-11.875-5.836l-30.444-39.45c-3.219-4.17-4.014-9.724-2.094-14.629l30.444-77.818c2.25-5.751 7.794-9.535 13.969-9.535s11.719 3.784 13.969 9.535l30.445 77.818c1.92 4.905 1.125 10.459-2.094 14.629l-30.445 39.45c-2.84 3.68-7.227 5.836-11.875 5.836z" fill="#7dd5f4"/></g><path d="m435.311 86.353c-48.162-48.163-112.198-74.688-180.312-74.688s-132.149 26.524-180.311 74.688c-48.164 48.163-74.688 112.199-74.688 180.312 0 6.123.229 12.404.683 18.67.567 7.844 7.097 13.918 14.961 13.918h103.093c4.31 0 8.411-1.854 11.259-5.089s4.167-7.538 3.62-11.813c-.66-5.164-.995-10.441-.995-15.686 0-67.48 54.898-122.38 122.379-122.38s122.379 54.899 122.379 122.38c0 5.244-.335 10.521-.995 15.686-.547 4.275.772 8.578 3.62 11.813s6.949 5.089 11.259 5.089h103.093c7.864 0 14.394-6.074 14.961-13.918.453-6.266.683-12.547.683-18.67-.002-68.113-26.526-132.149-74.689-180.312zm-332.691 180.312c0 .862.008 1.725.021 2.588h-72.625c-.011-.866-.016-1.729-.016-2.588 0-56.265 20.76-107.771 55.022-147.264l51.525 51.525c-21.203 26.183-33.927 59.501-33.927 95.739zm54.99-117.102-51.464-51.464c36.188-31.993 82.709-52.538 133.854-55.921v72.847c-31.153 3.057-59.579 15.534-82.39 34.538zm112.389-34.539v-72.847c51.144 3.384 97.666 23.928 133.853 55.921l-51.464 51.465c-22.811-19.004-51.237-31.481-82.389-34.539zm209.983 154.229h-72.626c.014-.863.021-1.726.021-2.588 0-36.238-12.723-69.556-33.927-95.739l51.525-51.525c34.262 39.493 55.022 91 55.022 147.265.001.858-.004 1.721-.015 2.587z" fill="#fff4f4"/><path d="m435.311 86.353c-48.162-48.163-112.198-74.688-180.312-74.688h-.001v132.62h.001c67.48 0 122.379 54.899 122.379 122.38 0 5.244-.335 10.521-.995 15.686-.547 4.275.772 8.578 3.62 11.813s6.949 5.089 11.259 5.089h103.093c7.864 0 14.394-6.074 14.961-13.918.453-6.266.683-12.547.683-18.67-.001-68.113-26.525-132.149-74.688-180.312zm-165.312 28.671v-72.847c51.144 3.384 97.666 23.928 133.853 55.921l-51.464 51.465c-22.811-19.004-51.237-31.481-82.389-34.539zm209.983 154.229h-72.626c.014-.863.021-1.726.021-2.588 0-36.238-12.723-69.556-33.927-95.739l51.525-51.525c34.262 39.493 55.022 91 55.022 147.265.001.858-.004 1.721-.015 2.587z" fill="#f6efea"/><path d="m299.412 420.188-30.445-77.818c-2.25-5.751-7.794-9.535-13.969-9.535v147.269c4.648 0 9.035-2.155 11.875-5.836l30.445-39.45c3.219-4.171 4.014-9.724 2.094-14.63z" fill="#4793ff"/><g><path d="m254.998 346.286c-46.351 0-84.06-37.709-84.06-84.061s37.709-84.061 84.06-84.061c46.352 0 84.062 37.709 84.062 84.061s-37.71 84.061-84.062 84.061z" fill="#ffe4c1"/></g><path d="m254.998 178.165v168.121c46.352 0 84.062-37.709 84.062-84.061s-37.71-84.06-84.062-84.06z" fill="#fdd1a3"/></g></svg>